<svg width="24" height="24" viewBox="0 0 24 24" fill="none" xmlns="http://www.w3.org/2000/svg">
<path d="M7 7C7 4.243 9.243 2 12 2C14.757 2 17 4.243 17 7C17 9.757 14.757 12 12 12C9.243 12 7 9.757 7 7Z" fill="#9CA3AF"/>
<path d="M4 16.25C4 15.0095 5.0095 14 6.25 14H12.0283C11.3803 15.011 11 16.21 11 17.5C11 19.236 11.6854 20.8086 12.7939 21.9746C12.5329 21.9906 12.2685 22 12 22C7.514 22 4 19.7376 4 16.8496V16.25Z" fill="#9CA3AF"/>
<path d="M17.5 12C14.4625 12 12 14.4625 12 17.5C12 20.5375 14.4625 23 17.5 23C20.5375 23 23 20.5375 23 17.5C23 14.4625 20.5375 12 17.5 12ZM17.5 13.5C17.776 13.5 18 13.724 18 14V17H21C21.276 17 21.5 17.224 21.5 17.5C21.5 17.776 21.276 18 21 18H18V21C18 21.276 17.776 21.5 17.5 21.5C17.224 21.5 17 21.276 17 21V18H14C13.724 18 13.5 17.776 13.5 17.5C13.5 17.224 13.724 17 14 17H17V14C17 13.724 17.224 13.5 17.5 13.5Z" fill="#9CA3AF"/>
</svg>
