<?xml version="1.0" encoding="UTF-8"?>
<svg xmlns="http://www.w3.org/2000/svg" xmlns:xlink="http://www.w3.org/1999/xlink" width="25px" height="24px" viewBox="0 0 25 24" version="1.1">
<g id="surface1">
<path style=" stroke:none;fill-rule:nonzero;fill:rgb(100%,100%,100%);fill-opacity:1;" d="M 4.464844 0 C 2.339844 0 0.59375 1.757812 0.59375 3.898438 L 0.59375 17.121094 C 0.59375 18.292969 2.019531 19.023438 2.957031 18.335938 L 5.53125 16.449219 C 6.019531 18.035156 7.496094 19.199219 9.226562 19.199219 L 16.671875 19.199219 L 22.042969 23.136719 C 22.980469 23.824219 24.40625 23.09375 24.40625 21.921875 L 24.40625 8.699219 C 24.40625 6.558594 22.660156 4.800781 20.535156 4.800781 L 19.644531 4.800781 L 19.644531 3.898438 C 19.644531 1.757812 17.898438 0 15.773438 0 Z M 4.464844 1.800781 L 15.773438 1.800781 C 16.933594 1.800781 17.855469 2.730469 17.855469 3.898438 L 17.855469 10.5 C 17.855469 11.671875 16.933594 12.601562 15.773438 12.601562 L 8.035156 12.601562 C 7.847656 12.601562 7.664062 12.660156 7.511719 12.773438 L 2.382812 16.53125 L 2.382812 3.898438 C 2.382812 2.730469 3.304688 1.800781 4.464844 1.800781 Z M 19.644531 6.601562 L 20.535156 6.601562 C 21.695312 6.601562 22.617188 7.53125 22.617188 8.699219 L 22.617188 21.332031 L 17.488281 17.574219 C 17.335938 17.460938 17.152344 17.398438 16.964844 17.398438 L 9.226562 17.398438 C 8.066406 17.398438 7.144531 16.46875 7.144531 15.300781 L 7.144531 15.265625 L 8.328125 14.398438 L 15.773438 14.398438 C 17.898438 14.398438 19.644531 12.644531 19.644531 10.5 Z M 19.644531 6.601562 "/>
</g>
</svg>
