<svg width="14" height="14" viewBox="0 0 14 14" fill="none" xmlns="http://www.w3.org/2000/svg">
<path d="M9.49632 0.348297C8.50997 0.348297 7.52367 0.722634 6.77496 1.47134L0.543834 7.70246C0.479853 7.76389 0.428772 7.83747 0.393583 7.91889C0.358393 8.00031 0.339804 8.08793 0.338902 8.17663C0.338 8.26532 0.354804 8.3533 0.38833 8.43542C0.421856 8.51754 0.47143 8.59214 0.534149 8.65486C0.596868 8.71758 0.671471 8.76715 0.753588 8.80068C0.835706 8.8342 0.923687 8.85101 1.01238 8.8501C1.10107 8.8492 1.1887 8.83061 1.27011 8.79542C1.35153 8.76023 1.42511 8.70915 1.48654 8.64517L7.71767 2.41405C8.70558 1.42614 10.287 1.42614 11.275 2.41405C12.2629 3.40197 12.2629 4.98343 11.275 5.97134L5.26975 11.9766C4.78822 12.4581 4.02732 12.4581 3.54579 11.9766C3.06426 11.495 3.06426 10.7341 3.54579 10.2526L8.32704 5.47134C8.39103 5.40991 8.44211 5.33633 8.4773 5.25492C8.51249 5.1735 8.53108 5.08587 8.53198 4.99718C8.53288 4.90849 8.51608 4.82051 8.48255 4.73839C8.44903 4.65627 8.39945 4.58167 8.33673 4.51895C8.27401 4.45623 8.19941 4.40665 8.11729 4.37313C8.03517 4.3396 7.94719 4.3228 7.8585 4.3237C7.7698 4.3246 7.68218 4.34319 7.60076 4.37838C7.51934 4.41357 7.44576 4.46465 7.38433 4.52864L2.60308 9.30989C1.61194 10.301 1.61194 11.9281 2.60308 12.9193C3.59422 13.9104 5.22132 13.9104 6.21246 12.9193L12.2177 6.91405C13.7151 5.41663 13.7151 2.96876 12.2177 1.47134C11.469 0.722634 10.4827 0.348297 9.49632 0.348297Z" fill="#9CA3AF"/>
</svg>
