<svg width="20" height="20" viewBox="0 0 20 20" fill="none" xmlns="http://www.w3.org/2000/svg">
<path d="M6 3.99999V1.99999C6 1.64637 6.14048 1.30723 6.39052 1.05718C6.64057 0.807132 6.97971 0.666656 7.33333 0.666656H12.6667C13.0203 0.666656 13.3594 0.807132 13.6095 1.05718C13.8595 1.30723 14 1.64637 14 1.99999V3.99999M0 4.66666H20M2 4.66666V18C2 18.3536 2.14048 18.6927 2.39052 18.9428C2.64057 19.1928 2.97971 19.3333 3.33333 19.3333H16.6667C17.0203 19.3333 17.3594 19.1928 17.6095 18.9428C17.8595 18.6927 18 18.3536 18 18V4.66666M10 9.33332V16M6 12V16M14 12V16" stroke="#1E1E1E"/>
</svg>
