<svg width="22" height="22" viewBox="0 0 22 22" fill="none" xmlns="http://www.w3.org/2000/svg">
<path d="M6.73079 9.53903L2.18676 14.0831C1.42689 14.8429 1 15.8735 1 16.9482C1 17.4802 1.1048 18.0071 1.30843 18.4987C1.51205 18.9903 1.81051 19.437 2.18676 19.8132C2.56301 20.1895 3.00968 20.4879 3.50127 20.6916C3.99287 20.8952 4.51975 21 5.05185 21C6.12646 21 7.15707 20.5731 7.91694 19.8132L12.461 15.2692M15.3261 12.4041L19.8701 7.86009C20.6049 7.09511 21.0105 6.07255 20.9998 5.01189C20.9891 3.95123 20.563 2.93703 19.813 2.187C19.063 1.43696 18.0488 1.01088 16.9881 1.00021C15.9275 0.989532 14.9049 1.39512 14.1399 2.12991L9.59588 6.67394M6.73079 15.2692L15.3261 6.67394" stroke="#1E1E1E"/>
</svg>
