<svg width="24" height="24" viewBox="0 0 24 24" fill="none" xmlns="http://www.w3.org/2000/svg">
<path d="M12.75 1.5C11.8775 1.5 11.1215 2.01305 10.749 2.74707C10.4461 2.59411 10.1097 2.5 9.75 2.5C8.51625 2.5 7.5 3.51625 7.5 4.75V13.9912C6.76616 13.5731 5.85425 13.0453 5.20703 12.7637C4.84248 12.605 4.43778 12.5 4.00782 12.5C2.98198 12.5 2.2496 13.0318 1.90332 13.5518C1.55705 14.0717 1.50391 14.6055 1.50391 14.6055C1.49136 14.7236 1.50704 14.843 1.54965 14.9538C1.59227 15.0647 1.6606 15.1639 1.74903 15.2432C1.74903 15.2432 5.92023 18.9986 7.09571 20.2422C8.08305 21.2864 9.43231 22.0299 10.9609 22H15.2178C18.3882 22.0287 20.9714 19.4453 21 16.2822C21 16.2799 21 16.2777 21 16.2754V6.75C21 5.51625 19.9838 4.5 18.75 4.5C18.4824 4.5 18.2283 4.5551 17.9893 4.64258C17.9313 3.45879 16.947 2.5 15.75 2.5C15.3851 2.5 15.0532 2.60948 14.7471 2.7666C14.377 2.02598 13.6274 1.5 12.75 1.5ZM12.75 3C13.1733 3 13.5 3.32675 13.5 3.75V4.75V11.25C13.4986 11.3494 13.517 11.4481 13.554 11.5403C13.5911 11.6325 13.6461 11.7164 13.7159 11.7872C13.7857 11.858 13.8688 11.9142 13.9605 11.9526C14.0522 11.9909 14.1506 12.0107 14.25 12.0107C14.3494 12.0107 14.4478 11.9909 14.5395 11.9526C14.6312 11.9142 14.7143 11.858 14.7841 11.7872C14.8539 11.7164 14.9089 11.6325 14.946 11.5403C14.983 11.4481 15.0014 11.3494 15 11.25V4.75C15 4.32675 15.3268 4 15.75 4C16.1733 4 16.5 4.32675 16.5 4.75V6.75V11.75C16.4986 11.8494 16.517 11.9481 16.554 12.0403C16.5911 12.1325 16.6461 12.2164 16.7159 12.2872C16.7857 12.358 16.8688 12.4142 16.9605 12.4526C17.0522 12.4909 17.1506 12.5107 17.25 12.5107C17.3494 12.5107 17.4478 12.4909 17.5395 12.4526C17.6312 12.4142 17.7143 12.358 17.7841 12.2872C17.8539 12.2164 17.9089 12.1325 17.946 12.0403C17.983 11.9481 18.0014 11.8494 18 11.75V6.75C18 6.32675 18.3268 6 18.75 6C19.1733 6 19.5 6.32675 19.5 6.75V16.2686C19.4786 18.6285 17.584 20.5213 15.2315 20.5C15.2292 20.5 15.2269 20.5 15.2246 20.5H10.9463C10.9414 20.5 10.9365 20.5 10.9316 20.5C9.90653 20.5201 8.95309 20.0224 8.18653 19.2119H8.18555C6.93012 17.8839 3.6001 14.9029 3.11621 14.4688C3.13591 14.4276 3.12173 14.4273 3.15137 14.3828C3.28297 14.1852 3.42916 14 4.00782 14C4.19185 14 4.39396 14.0463 4.6084 14.1396C5.17212 14.3849 6.37267 15.0637 7.13282 15.4961C7.93547 15.9541 9 15.3305 9 14.4092V4.75C9 4.32675 9.32675 4 9.75 4C10.1733 4 10.5 4.32675 10.5 4.75V11.25C10.4986 11.3494 10.517 11.4481 10.554 11.5403C10.5911 11.6325 10.6461 11.7164 10.7159 11.7872C10.7857 11.858 10.8688 11.9142 10.9605 11.9526C11.0522 11.9909 11.1506 12.0107 11.25 12.0107C11.3494 12.0107 11.4478 11.9909 11.5395 11.9526C11.6312 11.9142 11.7143 11.858 11.7841 11.7872C11.8539 11.7164 11.9089 11.6325 11.946 11.5403C11.983 11.4481 12.0014 11.3494 12 11.25V4.75V3.75C12 3.32675 12.3268 3 12.75 3Z" fill="#9CA3AF"/>
</svg>
