<svg width="25" height="25" viewBox="0 0 25 25" fill="none" xmlns="http://www.w3.org/2000/svg">
<path d="M5.83325 0V8.33333M19.1666 0V8.33333M4.99992 12.5H9.99992M19.9999 12.5H14.9999M4.99992 17.5H9.99992M14.9999 17.5H19.9999M2.49992 4.16667H22.4999C22.9419 4.16667 23.3659 4.34226 23.6784 4.65482C23.991 4.96738 24.1666 5.39131 24.1666 5.83333V22.5C24.1666 22.942 23.991 23.3659 23.6784 23.6785C23.3659 23.9911 22.9419 24.1667 22.4999 24.1667H2.49992C2.05789 24.1667 1.63397 23.9911 1.32141 23.6785C1.00885 23.3659 0.833252 22.942 0.833252 22.5V5.83333C0.833252 5.39131 1.00885 4.96738 1.32141 4.65482C1.63397 4.34226 2.05789 4.16667 2.49992 4.16667Z" stroke="#9F418C" stroke-width="2"/>
</svg>
