<svg width="180" height="26" viewBox="0 0 180 26" fill="none" xmlns="http://www.w3.org/2000/svg">
<g clip-path="url(#clip0_2038_3740)">
<path d="M0.833008 25.308V1.70557H4.0581V22.3746H16.2812V25.308H0.833008Z" fill="#6C6C92"/>
<path d="M22.9172 11.8883H34.5276V14.7544H22.9172V11.8883ZM23.2075 22.3746H36.3659V25.308H19.9824V1.70557H35.9144V4.63901H23.2075V22.3746Z" fill="#6C6C92"/>
<path d="M46.0713 25.308V4.63901H38.3311V1.70557H57.0044V4.63901H49.2642V25.308H46.0713Z" fill="#6C6C92"/>
<path d="M59.7214 9.49465L61.3339 2.64995L61.7532 4.60558C61.1297 4.60558 60.6029 4.40327 60.1729 3.99866C59.7644 3.59405 59.5601 3.05456 59.5601 2.38021C59.5601 1.68337 59.7644 1.13265 60.1729 0.728039C60.6029 0.300948 61.1189 0.0874023 61.721 0.0874023C62.3445 0.0874023 62.8497 0.312187 63.2368 0.761756C63.6238 1.18885 63.8173 1.72833 63.8173 2.38021C63.8173 2.58251 63.8065 2.79606 63.785 3.02084C63.7635 3.22315 63.7098 3.45917 63.6238 3.72892C63.5593 3.99866 63.4518 4.34707 63.3013 4.77417L61.7532 9.49465H59.7214Z" fill="#6C6C92"/>
<path d="M75.5994 25.5779C73.8793 25.5779 72.2345 25.3082 70.665 24.7687C69.0954 24.2068 67.8591 23.4874 66.9561 22.6108L68.1494 19.9808C69.0094 20.7676 70.1059 21.4194 71.439 21.9364C72.772 22.4534 74.1588 22.7119 75.5994 22.7119C76.9109 22.7119 77.9752 22.5546 78.7922 22.2399C79.6092 21.9252 80.2112 21.4981 80.5983 20.9586C80.9853 20.3967 81.1788 19.7673 81.1788 19.0704C81.1788 18.2612 80.9208 17.6093 80.4047 17.1148C79.9102 16.6203 79.2545 16.2269 78.4374 15.9347C77.6419 15.62 76.7604 15.3502 75.7929 15.1255C74.8253 14.9007 73.8471 14.6422 72.858 14.3499C71.8905 14.0352 70.9982 13.6419 70.1812 13.1698C69.3857 12.6978 68.7407 12.0684 68.2461 11.2816C67.7516 10.4724 67.5044 9.43837 67.5044 8.17958C67.5044 6.96574 67.8054 5.85306 68.4074 4.84153C69.0309 3.80752 69.9769 2.98706 71.2455 2.38014C72.5355 1.75074 74.1696 1.43604 76.1476 1.43604C77.4592 1.43604 78.76 1.61587 80.05 1.97552C81.34 2.33518 82.4581 2.85218 83.4041 3.52654L82.3398 6.22396C81.3723 5.5496 80.351 5.06632 79.276 4.7741C78.2009 4.4594 77.1582 4.30205 76.1476 4.30205C74.8791 4.30205 73.8363 4.47064 73.0193 4.80781C72.2023 5.14499 71.6002 5.59456 71.2132 6.15652C70.8477 6.71848 70.665 7.34788 70.665 8.04472C70.665 8.87642 70.9122 9.53953 71.4067 10.0341C71.9227 10.5286 72.5785 10.922 73.374 11.2142C74.1911 11.5064 75.0833 11.7762 76.0509 12.0234C77.0184 12.2482 77.9859 12.5067 78.9535 12.7989C79.9425 13.0911 80.8348 13.4733 81.6303 13.9453C82.4473 14.4174 83.1031 15.0468 83.5976 15.8335C84.0921 16.6203 84.3394 17.6318 84.3394 18.8681C84.3394 20.0595 84.0276 21.1722 83.4041 22.2062C82.7806 23.2177 81.813 24.0382 80.5015 24.6676C79.2115 25.2745 77.5774 25.5779 75.5994 25.5779Z" fill="#6C6C92"/>
</g>
<g clip-path="url(#clip1_2038_3740)">
<path d="M90.5708 25.3084V1.70605H93.2154L103.342 19.5427H101.923L111.921 1.70605H114.566L114.598 25.3084H111.502L111.469 6.79743H112.211L103.31 22.4424H101.826L92.8606 6.79743H93.6669V25.3084H90.5708Z" fill="#8A48A3"/>
<path d="M124.307 11.8888H135.918V14.7548H124.307V11.8888ZM124.598 22.375H137.756V25.3084H121.373V1.70605H137.304V4.63949H124.598V22.375Z" fill="#8A48A3"/>
<path d="M145.913 11.8888H157.524V14.7548H145.913V11.8888ZM146.204 22.375H159.362V25.3084H142.979V1.70605H158.911V4.63949H146.204V22.375Z" fill="#8A48A3"/>
<path d="M169.067 25.3084V4.63949H161.327V1.70605H180V4.63949H172.26V25.3084H169.067Z" fill="#8A48A3"/>
</g>
<defs>
<clipPath id="clip0_2038_3740">
<rect width="85" height="26" fill="white"/>
</clipPath>
<clipPath id="clip1_2038_3740">
<rect width="90" height="25" fill="white" transform="translate(90 1)"/>
</clipPath>
</defs>
</svg>
