<svg width="14" height="14" viewBox="0 0 22 23" fill="none" xmlns="http://www.w3.org/2000/svg">
<path d="M11.0001 0C8.52012 0 6.50012 2.02 6.50012 4.5V12C6.50012 12.105 6.50488 12.2096 6.50988 12.3096L7.25012 11.5703V11.5693L7.87512 10.9453L14.0001 4.82031V4.81934L14.7247 4.09473L15.3751 3.44531C14.9001 1.47031 13.1151 0 11.0001 0ZM20.2355 0.993164C20.0407 0.998841 19.8558 1.0801 19.7198 1.21973L1.21984 19.7197C1.14786 19.7888 1.0904 19.8716 1.05081 19.9632C1.01122 20.0548 0.990311 20.1534 0.989297 20.2532C0.988282 20.3529 1.00719 20.4519 1.0449 20.5443C1.08262 20.6367 1.13839 20.7206 1.20895 20.7912C1.27951 20.8617 1.36344 20.9175 1.45582 20.9552C1.5482 20.9929 1.64718 21.0118 1.74696 21.0108C1.84674 21.0098 1.94531 20.9889 2.03691 20.9493C2.1285 20.9097 2.21128 20.8523 2.28039 20.7803L5.73352 17.3271C6.92051 18.5034 8.49793 19.2817 10.2501 19.457V21.75C10.2487 21.8494 10.2671 21.9481 10.3041 22.0403C10.3412 22.1325 10.3962 22.2164 10.466 22.2872C10.5358 22.358 10.6189 22.4142 10.7106 22.4526C10.8023 22.4909 10.9007 22.5107 11.0001 22.5107C11.0995 22.5107 11.1979 22.4909 11.2896 22.4526C11.3813 22.4142 11.4645 22.358 11.5342 22.2872C11.604 22.2164 11.659 22.1325 11.6961 22.0403C11.7332 21.9481 11.7515 21.8494 11.7501 21.75V19.4619C15.5343 19.0842 18.5001 15.8818 18.5001 12V10.25C18.5001 9.835 18.1651 9.5 17.7501 9.5C17.3351 9.5 17.0001 9.835 17.0001 10.25V12C17.0001 15.28 14.3577 17.947 11.089 17.9951C11.0805 17.994 11.0721 17.993 11.0636 17.9922C11.0386 17.99 11.0135 17.989 10.9884 17.9893C10.9633 17.9896 10.9382 17.9913 10.9132 17.9941C10.9119 17.9945 10.9106 17.9948 10.9093 17.9951C10.909 17.9951 10.9086 17.9951 10.9083 17.9951C9.30511 17.9707 7.85396 17.3169 6.79309 16.2676L7.85656 15.2041C8.669 16.0014 9.77502 16.5 11.0001 16.5C13.4801 16.5 15.5001 14.48 15.5001 12V7.56055L20.7804 2.28027C20.8886 2.1749 20.9625 2.03931 20.9923 1.89126C21.0222 1.7432 21.0067 1.58958 20.9478 1.4505C20.8889 1.31141 20.7894 1.19335 20.6623 1.11175C20.5352 1.03015 20.3864 0.988816 20.2355 0.993164ZM4.25012 9.5C3.83512 9.5 3.50012 9.835 3.50012 10.25V12C3.50012 12.985 3.69027 13.9252 4.03527 14.7852L5.21984 13.5996C5.07484 13.0896 5.00012 12.555 5.00012 12V10.25C5.00012 9.835 4.66512 9.5 4.25012 9.5Z" fill="#EF4444"/>
</svg>
