<svg width="14" height="14" viewBox="0 0 10 16" fill="none" xmlns="http://www.w3.org/2000/svg">
<path d="M5.00005 0.666687C3.34914 0.666687 2.00005 2.01578 2.00005 3.66669V8.66669C2.00005 10.3176 3.34914 11.6667 5.00005 11.6667C6.65096 11.6667 8.00005 10.3176 8.00005 8.66669V3.66669C8.00005 2.01578 6.65096 0.666687 5.00005 0.666687ZM0.492239 6.99286C0.359744 6.99493 0.233489 7.0495 0.141204 7.1446C0.0489186 7.23969 -0.00184913 7.36752 5.15067e-05 7.50002V8.66669C5.15067e-05 11.2535 1.97806 13.3894 4.50005 13.6413V15.1667C4.49911 15.2329 4.51135 15.2987 4.53606 15.3602C4.56077 15.4217 4.59745 15.4777 4.64397 15.5248C4.69049 15.572 4.74593 15.6095 4.80706 15.6351C4.86819 15.6606 4.93379 15.6738 5.00005 15.6738C5.06631 15.6738 5.13192 15.6606 5.19304 15.6351C5.25417 15.6095 5.30961 15.572 5.35613 15.5248C5.40265 15.4777 5.43933 15.4217 5.46404 15.3602C5.48875 15.2987 5.50099 15.2329 5.50005 15.1667V13.6413C8.02204 13.3894 10.0001 11.2535 10.0001 8.66669V7.50002C10.001 7.43376 9.98875 7.36798 9.96404 7.3065C9.93933 7.24501 9.90265 7.18905 9.85613 7.14187C9.80961 7.09468 9.75417 7.05722 9.69304 7.03164C9.63192 7.00607 9.56631 6.9929 9.50005 6.9929C9.43379 6.9929 9.36819 7.00607 9.30706 7.03164C9.24593 7.05722 9.19049 7.09468 9.14397 7.14187C9.09745 7.18905 9.06077 7.24501 9.03606 7.3065C9.01135 7.36798 8.99911 7.43376 9.00005 7.50002V8.66669C9.00005 10.8618 7.24661 12.6316 5.0593 12.6634C5.03706 12.6606 5.01465 12.6593 4.99224 12.6595C4.97395 12.6598 4.9557 12.6611 4.93755 12.6634C2.75176 12.6299 1.00005 10.8607 1.00005 8.66669V7.50002C1.00101 7.4331 0.988527 7.36666 0.963339 7.30466C0.938151 7.24265 0.900771 7.18633 0.853415 7.13903C0.806059 7.09174 0.74969 7.05443 0.687649 7.02932C0.625609 7.00421 0.559159 6.99181 0.492239 6.99286Z" fill="white"/>
</svg>
