<svg width="16" height="15" viewBox="0 0 16 15" fill="none" xmlns="http://www.w3.org/2000/svg">
<path d="M8.00008 -8C5.52372 -8 3.50008 -5.97636 3.50008 -3.5V4C3.50008 6.47636 5.52372 8.5 8.00008 8.5C10.4764 8.5 12.5001 6.47636 12.5001 4V-3.5C12.5001 -5.97636 10.4764 -8 8.00008 -8ZM1.23836 1.48926C1.03962 1.49236 0.850233 1.57423 0.711805 1.71686C0.573378 1.8595 0.497226 2.05125 0.500077 2.25V4C0.500077 7.88025 3.4671 11.0841 7.25008 11.4619V13.75C7.24867 13.8494 7.26703 13.9481 7.30409 14.0403C7.34115 14.1325 7.39617 14.2164 7.46596 14.2872C7.53574 14.358 7.61889 14.4142 7.71059 14.4526C7.80228 14.4909 7.90068 14.5107 8.00008 14.5107C8.09947 14.5107 8.19787 14.4909 8.28957 14.4526C8.38126 14.4142 8.46441 14.358 8.5342 14.2872C8.60398 14.2164 8.659 14.1325 8.69606 14.0403C8.73312 13.9481 8.75148 13.8494 8.75008 13.75V11.4619C12.5331 11.0841 15.5001 7.88025 15.5001 4V2.25C15.5015 2.15062 15.4831 2.05194 15.4461 1.95972C15.409 1.86749 15.354 1.78355 15.2842 1.71277C15.2144 1.642 15.1313 1.58579 15.0396 1.54743C14.9479 1.50907 14.8495 1.48932 14.7501 1.48932C14.6507 1.48932 14.5523 1.50907 14.4606 1.54743C14.3689 1.58579 14.2857 1.642 14.216 1.71277C14.1462 1.78355 14.0912 1.86749 14.0541 1.95972C14.017 2.05194 13.9987 2.15062 14.0001 2.25V4C14.0001 7.29269 11.3699 9.94737 8.08894 9.99512C8.05558 9.99091 8.02198 9.98895 7.98836 9.98926C7.96093 9.98971 7.93354 9.99166 7.90633 9.99512C4.62764 9.94479 2.00008 7.29104 2.00008 4V2.25C2.00152 2.14962 1.98279 2.04997 1.94501 1.95695C1.90723 1.86394 1.85116 1.77946 1.78012 1.70852C1.70909 1.63758 1.62453 1.58161 1.53147 1.54395C1.43841 1.50629 1.33874 1.48769 1.23836 1.48926Z" fill="#007DFE"/>
</svg>
