<svg width="14" height="14" viewBox="0 0 22 22" fill="none" xmlns="http://www.w3.org/2000/svg">
<path d="M20.2355 0.99317C20.0407 0.998847 19.8558 1.0801 19.7198 1.21973L1.21984 19.7197C1.14786 19.7888 1.0904 19.8716 1.05081 19.9632C1.01122 20.0548 0.990311 20.1534 0.989297 20.2532C0.988282 20.3529 1.00719 20.4519 1.0449 20.5443C1.08262 20.6367 1.13839 20.7206 1.20895 20.7912C1.27951 20.8617 1.36344 20.9175 1.45582 20.9552C1.5482 20.9929 1.64718 21.0118 1.74696 21.0108C1.84674 21.0098 1.94531 20.9889 2.03691 20.9493C2.1285 20.9097 2.21128 20.8523 2.28039 20.7803L4.56066 18.5H11.7501C13.5451 18.5 15.0001 17.045 15.0001 15.25V8.06055L20.7804 2.28028C20.8886 2.1749 20.9625 2.03931 20.9923 1.89126C21.0222 1.74321 21.0067 1.58959 20.9478 1.4505C20.8889 1.31142 20.7894 1.19335 20.6623 1.11175C20.5352 1.03015 20.3864 0.988822 20.2355 0.99317ZM4.25012 3.50001C2.45512 3.50001 1.00012 4.95501 1.00012 6.75001V15.25C1.00012 15.98 1.24353 16.6509 1.64953 17.1934L14.212 4.63184C13.616 3.94034 12.7351 3.50001 11.7501 3.50001H4.25012ZM20.2404 5.50001C20.1099 5.50163 19.9804 5.53793 19.8644 5.60743L16.0001 7.92579V14.0742L19.8644 16.3926C19.9829 16.4641 20.1161 16.5 20.2501 16.5C20.3776 16.5 20.5048 16.4673 20.6193 16.4023C20.8543 16.2693 21.0001 16.0205 21.0001 15.75V6.25001C21.0001 5.97951 20.8543 5.73066 20.6193 5.59766C20.5018 5.53116 20.3709 5.49838 20.2404 5.50001Z" fill="#A8AEB8"/>
</svg>
