<svg width="20" height="20" viewBox="0 0 20 20" fill="none" xmlns="http://www.w3.org/2000/svg">
<path d="M10 0C4.48615 0 0 4.48615 0 10C0 15.5139 4.48615 20 10 20C15.5139 20 20 15.5139 20 10C20 4.48615 15.5139 0 10 0ZM10 1.5C14.7031 1.5 18.5 5.29685 18.5 10C18.5 14.7031 14.7031 18.5 10 18.5C5.29685 18.5 1.5 14.7031 1.5 10C1.5 5.29685 5.29685 1.5 10 1.5ZM10 5.5C7.5236 5.5 5.5 7.5236 5.5 10C5.5 12.4764 7.5236 14.5 10 14.5C12.4764 14.5 14.5 12.4764 14.5 10C14.5 7.5236 12.4764 5.5 10 5.5Z" fill="white"/>
</svg>
