<?xml version="1.0" encoding="UTF-8"?>
<svg xmlns="http://www.w3.org/2000/svg" xmlns:xlink="http://www.w3.org/1999/xlink" width="20px" height="20px" viewBox="0 0 20 20" version="1.1">
<g id="surface1">
<path style=" stroke:none;fill-rule:nonzero;fill:rgb(100%,100%,100%);fill-opacity:1;" d="M 10 0 C 9.210938 0 8.449219 0.0976562 7.726562 0.269531 C 7.574219 0.304688 7.4375 0.386719 7.332031 0.503906 C 7.230469 0.617188 7.167969 0.761719 7.152344 0.917969 L 6.992188 2.371094 C 6.941406 2.84375 6.664062 3.265625 6.25 3.503906 C 5.835938 3.746094 5.332031 3.769531 4.894531 3.578125 L 3.5625 2.992188 C 3.417969 2.929688 3.261719 2.910156 3.109375 2.941406 C 2.957031 2.972656 2.820312 3.050781 2.714844 3.164062 C 1.675781 4.269531 0.878906 5.605469 0.429688 7.101562 C 0.386719 7.25 0.386719 7.410156 0.433594 7.554688 C 0.484375 7.703125 0.578125 7.832031 0.703125 7.921875 L 1.886719 8.789062 C 2.273438 9.074219 2.5 9.519531 2.5 10 C 2.5 10.480469 2.273438 10.925781 1.886719 11.210938 L 0.703125 12.074219 C 0.578125 12.167969 0.484375 12.296875 0.433594 12.441406 C 0.386719 12.589844 0.386719 12.75 0.429688 12.898438 C 0.878906 14.390625 1.675781 15.730469 2.714844 16.835938 C 2.820312 16.949219 2.957031 17.027344 3.109375 17.058594 C 3.261719 17.089844 3.417969 17.070312 3.5625 17.007812 L 4.894531 16.421875 C 5.332031 16.230469 5.835938 16.253906 6.25 16.496094 C 6.664062 16.734375 6.941406 17.15625 6.992188 17.628906 L 7.152344 19.082031 C 7.167969 19.238281 7.230469 19.378906 7.332031 19.496094 C 7.4375 19.613281 7.574219 19.695312 7.722656 19.730469 C 8.449219 19.902344 9.210938 20 10 20 C 10.789062 20 11.550781 19.902344 12.273438 19.730469 C 12.425781 19.695312 12.5625 19.613281 12.667969 19.496094 C 12.769531 19.382812 12.832031 19.238281 12.847656 19.082031 L 13.007812 17.628906 C 13.058594 17.15625 13.335938 16.734375 13.75 16.496094 C 14.164062 16.253906 14.667969 16.230469 15.105469 16.421875 L 16.4375 17.007812 C 16.582031 17.070312 16.738281 17.089844 16.890625 17.058594 C 17.042969 17.027344 17.179688 16.949219 17.285156 16.835938 C 18.324219 15.730469 19.121094 14.390625 19.570312 12.898438 C 19.613281 12.75 19.613281 12.589844 19.566406 12.441406 C 19.515625 12.296875 19.421875 12.167969 19.296875 12.074219 L 18.113281 11.210938 C 17.726562 10.925781 17.5 10.480469 17.5 10 C 17.5 9.519531 17.726562 9.074219 18.113281 8.789062 L 19.296875 7.925781 C 19.421875 7.832031 19.515625 7.703125 19.566406 7.558594 C 19.613281 7.410156 19.613281 7.25 19.570312 7.101562 C 19.121094 5.609375 18.324219 4.269531 17.285156 3.164062 C 17.179688 3.050781 17.042969 2.972656 16.890625 2.941406 C 16.738281 2.910156 16.582031 2.929688 16.4375 2.992188 L 15.105469 3.578125 C 14.667969 3.769531 14.164062 3.746094 13.75 3.503906 C 13.335938 3.265625 13.058594 2.84375 13.007812 2.371094 L 12.847656 0.917969 C 12.832031 0.761719 12.769531 0.621094 12.667969 0.503906 C 12.5625 0.386719 12.425781 0.304688 12.277344 0.269531 C 11.550781 0.0976562 10.789062 0 10 0 Z M 10 1.5 C 10.488281 1.5 10.957031 1.589844 11.425781 1.667969 L 11.519531 2.53125 C 11.621094 3.480469 12.175781 4.324219 13 4.804688 C 13.828125 5.28125 14.832031 5.335938 15.707031 4.953125 L 16.5 4.605469 C 17.109375 5.335938 17.589844 6.160156 17.929688 7.066406 L 17.226562 7.582031 C 16.457031 8.144531 16 9.042969 16 10 C 16 10.957031 16.457031 11.855469 17.226562 12.417969 L 17.929688 12.933594 C 17.589844 13.839844 17.109375 14.664062 16.5 15.394531 L 15.707031 15.046875 C 14.832031 14.664062 13.828125 14.71875 13 15.195312 C 12.175781 15.675781 11.621094 16.519531 11.519531 17.46875 L 11.425781 18.332031 C 10.957031 18.410156 10.488281 18.5 10 18.5 C 9.511719 18.5 9.042969 18.410156 8.574219 18.332031 L 8.480469 17.46875 C 8.378906 16.519531 7.824219 15.675781 7 15.195312 C 6.171875 14.71875 5.167969 14.664062 4.292969 15.046875 L 3.5 15.394531 C 2.890625 14.667969 2.410156 13.839844 2.070312 12.933594 L 2.773438 12.417969 C 3.542969 11.855469 4 10.957031 4 10 C 4 9.042969 3.542969 8.144531 2.773438 7.582031 L 2.070312 7.066406 C 2.410156 6.160156 2.890625 5.332031 3.5 4.601562 L 4.292969 4.949219 C 5.167969 5.335938 6.171875 5.28125 7 4.804688 C 7.824219 4.324219 8.378906 3.480469 8.480469 2.53125 L 8.574219 1.667969 C 9.042969 1.589844 9.511719 1.5 10 1.5 Z M 10 6 C 7.800781 6 6 7.800781 6 10 C 6 12.199219 7.800781 14 10 14 C 12.199219 14 14 12.199219 14 10 C 14 7.800781 12.199219 6 10 6 Z M 10 7.5 C 11.390625 7.5 12.5 8.609375 12.5 10 C 12.5 11.390625 11.390625 12.5 10 12.5 C 8.609375 12.5 7.5 11.390625 7.5 10 C 7.5 8.609375 8.609375 7.5 10 7.5 Z M 10 7.5 "/>
</g>
</svg>
