<svg width="23" height="22" viewBox="0 0 23 25" fill="none" xmlns="http://www.w3.org/2000/svg">
<path d="M16.8889 20V17.8888C16.8889 16.769 16.4704 15.6951 15.7255 14.9033C14.9805 14.1115 13.9702 13.6666 12.9167 13.6666H4.97222C3.91872 13.6666 2.90837 14.1115 2.16344 14.9033C1.4185 15.6951 1 16.769 1 17.8888V20" stroke="#9CA3AF" stroke-width="2" stroke-linecap="round" stroke-linejoin="round"/>
<path d="M9.25005 9.23333C11.4439 9.23333 13.2223 7.39024 13.2223 5.11667C13.2223 2.84309 11.4439 1 9.25005 1C7.05626 1 5.27783 2.84309 5.27783 5.11667C5.27783 7.39024 7.05626 9.23333 9.25005 9.23333Z" stroke="#9CA3AF" stroke-width="2" stroke-linecap="round" stroke-linejoin="round"/>
<path d="M23.0001 20V17.8421C22.9996 16.8859 22.7592 15.957 22.3168 15.2012C21.8743 14.4455 21.2549 13.9057 20.5557 13.6666" stroke="#9CA3AF" stroke-width="2" stroke-linecap="round" stroke-linejoin="round"/>
<path d="M15.6665 1C16.5406 1.23404 17.3153 1.76565 17.8685 2.51101C18.4218 3.25638 18.7221 4.17311 18.7221 5.11667C18.7221 6.06023 18.4218 6.97695 17.8685 7.72232C17.3153 8.46769 16.5406 8.99929 15.6665 9.23333" stroke="#9CA3AF" stroke-width="2" stroke-linecap="round" stroke-linejoin="round"/>
</svg>
