<svg width="20" height="20" viewBox="0 0 20 20" fill="none" xmlns="http://www.w3.org/2000/svg">
<path d="M4.66682 19.3333L4.19482 19.8053C4.25675 19.8674 4.33032 19.9167 4.41131 19.9503C4.49231 19.9839 4.57913 20.0012 4.66682 20.0012C4.75451 20.0012 4.84134 19.9839 4.92234 19.9503C5.00333 19.9167 5.0769 19.8674 5.13882 19.8053L4.66682 19.3333ZM5.13882 19.8053L9.13882 15.8053L8.19482 14.8613L4.19482 18.8613L5.13882 19.8053ZM5.13882 18.8613L1.13882 14.8613L0.194824 15.8053L4.19482 19.8053L5.13882 18.8613ZM4.00016 0V19.3333H5.33349V0H4.00016ZM12.0002 5.33333H20.0002V4H12.0002V5.33333ZM12.0002 10.6667H17.3335V9.33333H12.0002V10.6667ZM12.0002 16H14.6668V14.6667H12.0002V16Z" fill="#6C6C92"/>
</svg>
