<svg width="24" height="24" viewBox="0 0 24 24" fill="none" xmlns="http://www.w3.org/2000/svg">
<path d="M16.3912 22.1879V22.913H17.1159V22.1879H16.3912ZM1.89847 22.1879H1.17383V22.913H1.89847V22.1879ZM12.768 6.24687C12.7678 6.7228 12.674 7.19403 12.4918 7.63366C12.3096 8.07329 12.0427 8.47271 11.7062 8.80911C11.3698 9.14551 10.9704 9.4123 10.5309 9.59425C10.0914 9.77621 9.62046 9.86976 9.14484 9.86957V11.3198C11.9463 11.3198 14.2173 9.04873 14.2173 6.24687H12.768ZM9.14484 9.86957C8.66923 9.86976 8.19824 9.77621 7.75875 9.59425C7.31927 9.4123 6.91991 9.14551 6.58346 8.80911C6.24702 8.47271 5.98008 8.07329 5.7979 7.63366C5.61571 7.19403 5.52184 6.7228 5.52165 6.24687H4.07238C4.07257 6.91325 4.20392 7.57306 4.45894 8.18864C4.71396 8.80423 5.08765 9.36352 5.55867 9.83458C6.02969 10.3056 6.58882 10.6793 7.20414 10.9341C7.81946 11.1889 8.47891 11.32 9.14484 11.3198V9.86957ZM5.52165 6.24687C5.52184 5.77094 5.61571 5.2997 5.7979 4.86007C5.98008 4.42044 6.24702 4.02103 6.58346 3.68463C6.91991 3.34823 7.31927 3.08143 7.75875 2.89948C8.19824 2.71752 8.66923 2.62397 9.14484 2.62416V1.17392C8.47891 1.17373 7.81946 1.30479 7.20414 1.55963C6.58882 1.81447 6.02969 2.18808 5.55867 2.65915C5.08765 3.13022 4.71396 3.68951 4.45894 4.30509C4.20392 4.92067 4.07257 5.58049 4.07238 6.24687H5.52165ZM9.14484 2.62416C10.1053 2.62416 11.0264 3.00575 11.7058 3.68505C12.3852 4.36436 12.7673 5.2858 12.768 6.24687H14.2173C14.2171 5.58049 14.0858 4.92067 13.8307 4.30509C13.5757 3.68951 13.202 3.13022 12.731 2.65915C12.26 2.18808 11.7009 1.81447 11.0855 1.55963C10.4702 1.30479 9.81078 1.17373 9.14484 1.17392V2.62416ZM16.3912 21.4628H1.89847V22.913H16.3912V21.4628ZM2.6231 22.1879V19.2947H1.17383V22.1879H2.6231ZM6.24629 15.6676H12.0434V14.2174H6.24629V15.6676ZM15.6666 19.2932V22.1879H17.1159V19.2932H15.6666ZM12.0434 15.6676C13.0043 15.6676 13.9259 16.0496 14.6054 16.7296C15.2849 17.4095 15.6666 18.3317 15.6666 19.2932H17.1159C17.1159 17.947 16.5814 16.656 15.6302 15.7041C14.6789 14.7522 13.3887 14.2174 12.0434 14.2174V15.6676ZM2.6231 19.2947C2.6231 18.3331 3.00483 17.4095 3.68431 16.7296C4.36379 16.0496 5.28536 15.6676 6.24629 15.6676V14.2174C4.90099 14.2174 3.61079 14.7522 2.65952 15.7041C1.70825 16.656 1.17383 17.9485 1.17383 19.2947H2.6231ZM18.5651 8.42513V15.6763H20.0144V8.42513H18.5651ZM15.6666 12.7759H22.913V11.3256H15.6666V12.7759Z" fill="#9F418C"/>
<path d="M16.3912 22.913V22.1879H17.1159M16.3912 22.913H17.1159V22.1879M16.3912 22.913H1.89847M16.3912 22.913V21.4628H1.89847V22.913M17.1159 22.1879H15.6666V19.2932M17.1159 22.1879V19.2932M1.17383 22.1879H1.89847V22.913M1.17383 22.1879V22.913H1.89847M1.17383 22.1879V19.2947M1.17383 22.1879H2.6231V19.2947M12.0434 14.9425V15.6676M12.0434 15.6676H6.24629M12.0434 15.6676V14.2174M12.0434 15.6676C13.0043 15.6676 13.9259 16.0496 14.6054 16.7296C15.2849 17.4095 15.6666 18.3317 15.6666 19.2932M6.24629 14.9425V14.2174M6.24629 14.2174H12.0434M6.24629 14.2174V15.6676M6.24629 14.2174C4.90099 14.2174 3.61079 14.7522 2.65952 15.7041C1.70825 16.656 1.17383 17.9485 1.17383 19.2947M12.768 6.24687C12.7678 6.7228 12.674 7.19403 12.4918 7.63366C12.3096 8.07329 12.0427 8.47271 11.7062 8.80911C11.3698 9.14551 10.9704 9.4123 10.5309 9.59425C10.0914 9.77621 9.62046 9.86976 9.14484 9.86957M12.768 6.24687H14.2173M12.768 6.24687C12.7673 5.2858 12.3852 4.36436 11.7058 3.68505C11.0264 3.00575 10.1053 2.62416 9.14484 2.62416M9.14484 9.86957V11.3198M9.14484 9.86957C8.66923 9.86976 8.19824 9.77621 7.75875 9.59425C7.31927 9.4123 6.91991 9.14551 6.58346 8.80911C6.24702 8.47271 5.98008 8.07329 5.7979 7.63366C5.61571 7.19403 5.52184 6.7228 5.52165 6.24687M9.14484 11.3198C11.9463 11.3198 14.2173 9.04873 14.2173 6.24687M9.14484 11.3198C8.47891 11.32 7.81946 11.1889 7.20414 10.9341C6.58882 10.6793 6.02969 10.3056 5.55867 9.83458C5.08765 9.36352 4.71396 8.80423 4.45894 8.18864C4.20392 7.57306 4.07257 6.91325 4.07238 6.24687M14.2173 6.24687C14.2171 5.58049 14.0858 4.92067 13.8307 4.30509C13.5757 3.68951 13.202 3.13022 12.731 2.65915C12.26 2.18808 11.7009 1.81447 11.0855 1.55963C10.4702 1.30479 9.81078 1.17373 9.14484 1.17392M5.52165 6.24687H4.07238M5.52165 6.24687C5.52184 5.77094 5.61571 5.2997 5.7979 4.86007C5.98008 4.42044 6.24702 4.02103 6.58346 3.68463C6.91991 3.34823 7.31927 3.08143 7.75875 2.89948C8.19824 2.71752 8.66923 2.62397 9.14484 2.62416M4.07238 6.24687C4.07257 5.58049 4.20392 4.92067 4.45894 4.30509C4.71396 3.68951 5.08765 3.13022 5.55867 2.65915C6.02969 2.18808 6.58882 1.81447 7.20414 1.55963C7.81946 1.30479 8.47891 1.17373 9.14484 1.17392M9.14484 2.62416V1.17392M2.6231 19.2947H1.17383M2.6231 19.2947C2.6231 18.3331 3.00483 17.4095 3.68431 16.7296C4.36379 16.0496 5.28536 15.6676 6.24629 15.6676M12.0434 14.2174C13.3887 14.2174 14.6789 14.7522 15.6302 15.7041C16.5814 16.656 17.1159 17.947 17.1159 19.2932M15.6666 19.2932H17.1159M18.5651 8.42513V15.6763H20.0144V8.42513H18.5651ZM15.6666 12.7759H22.913V11.3256H15.6666V12.7759Z" stroke="#9F418C" stroke-width="0.7"/>
</svg>
