<svg width="17" height="20" viewBox="0 0 17 20" fill="none" xmlns="http://www.w3.org/2000/svg">
<path d="M8.5 0C5.74746 0 3.5 2.24746 3.5 5C3.5 7.75254 5.74746 10 8.5 10C11.2525 10 13.5 7.75254 13.5 5C13.5 2.24746 11.2525 0 8.5 0ZM2.75 12C1.51625 12 0.5 13.0162 0.5 14.25V14.8496C0.5 16.32 1.43236 17.639 2.85449 18.5459C4.27663 19.4528 6.22242 20 8.5 20C10.7776 20 12.7234 19.4528 14.1455 18.5459C15.5676 17.639 16.5 16.32 16.5 14.8496V14.25C16.5 13.0162 15.4838 12 14.25 12H2.75Z" fill="white"/>
</svg>
