<svg width="12" height="10" viewBox="0 0 12 10" fill="none" xmlns="http://www.w3.org/2000/svg">
<path d="M8.33317 7.47917C8.33317 8.52625 7.48442 9.375 6.43734 9.375H2.06234C1.01525 9.375 0.166504 8.52625 0.166504 7.47917V2.52083C0.166504 1.47375 1.01525 0.625 2.06234 0.625H6.43734C7.48442 0.625 8.33317 1.47375 8.33317 2.52083V7.47917ZM11.6112 1.84854C11.4741 1.77096 11.3058 1.773 11.1705 1.85408L8.9165 3.20654V6.79346L11.1708 8.14592C11.2399 8.18762 11.3175 8.20833 11.3957 8.20833C11.47 8.20833 11.5444 8.18937 11.6112 8.15146C11.7483 8.07387 11.8332 7.92862 11.8332 7.77083V2.22917C11.8332 2.07137 11.7483 1.92612 11.6112 1.84854Z" fill="white"/>
</svg>
