<svg width="30" height="30" viewBox="0 0 30 30" fill="none" xmlns="http://www.w3.org/2000/svg">
<path d="M13 11L13.496 10.132C13.3439 10.0451 13.1717 9.99974 12.9966 10.0003C12.8215 10.0009 12.6496 10.0475 12.4981 10.1354C12.3467 10.2233 12.2209 10.3494 12.1335 10.5011C12.0461 10.6528 12.0001 10.8249 12 11H13ZM13 19H12C12.0001 19.1751 12.0461 19.3472 12.1335 19.4989C12.2209 19.6506 12.3467 19.7767 12.4981 19.8646C12.6496 19.9525 12.8215 19.9991 12.9966 19.9997C13.1717 20.0003 13.3439 19.9549 13.496 19.868L13 19ZM20 15L20.496 15.868C20.6489 15.7805 20.7761 15.6541 20.8645 15.5017C20.9529 15.3493 20.9994 15.1762 20.9994 15C20.9994 14.8238 20.9529 14.6507 20.8645 14.4983C20.7761 14.3459 20.6489 14.2195 20.496 14.132L20 15ZM15 28C11.5522 28 8.24558 26.6304 5.80761 24.1924C3.36964 21.7544 2 18.4478 2 15H0C0 18.9782 1.58035 22.7936 4.3934 25.6066C7.20644 28.4196 11.0218 30 15 30V28ZM28 15C28 16.7072 27.6637 18.3977 27.0104 19.9749C26.3571 21.5521 25.3996 22.9852 24.1924 24.1924C22.9852 25.3996 21.5521 26.3571 19.9749 27.0104C18.3977 27.6637 16.7072 28 15 28V30C18.9782 30 22.7936 28.4196 25.6066 25.6066C28.4196 22.7936 30 18.9782 30 15H28ZM15 2C16.7072 2 18.3977 2.33625 19.9749 2.98957C21.5521 3.64288 22.9852 4.60045 24.1924 5.80761C25.3996 7.01477 26.3571 8.44788 27.0104 10.0251C27.6637 11.6023 28 13.2928 28 15H30C30 11.0218 28.4196 7.20644 25.6066 4.3934C22.7936 1.58035 18.9782 0 15 0V2ZM15 0C11.0218 0 7.20644 1.58035 4.3934 4.3934C1.58035 7.20644 0 11.0218 0 15H2C2 11.5522 3.36964 8.24558 5.80761 5.80761C8.24558 3.36964 11.5522 2 15 2V0ZM12 11V19H14V11H12ZM13.496 19.868L20.496 15.868L19.504 14.132L12.504 18.132L13.496 19.868ZM20.496 14.132L13.496 10.132L12.504 11.868L19.504 15.868L20.496 14.132Z" fill="#9F418C"/>
</svg>
